<svg width="21" height="11" viewBox="0 0 21 11" fill="none" xmlns="http://www.w3.org/2000/svg">
<path d="M4.66828 0.525391C7.2705 0.525391 8.5716 2.12956 8.5716 5.33789C8.5716 8.54622 7.2705 10.1504 4.66828 10.1504C2.06151 10.1504 0.758125 8.54622 0.758125 5.33789C0.758125 2.12956 2.06151 0.525391 4.66828 0.525391ZM4.66828 1.27051C3.95734 1.27051 3.60188 2.6263 3.60188 5.33789C3.60188 8.04948 3.95734 9.40527 4.66828 9.40527C5.37466 9.40527 5.72785 8.04948 5.72785 5.33789C5.72785 2.6263 5.37466 1.27051 4.66828 1.27051ZM14.9033 0.668945V10H12.292V2.97266C11.5947 3.3099 10.9476 3.49902 10.3506 3.54004V2.30957C11.7223 2.17285 12.6885 1.62598 13.249 0.668945H14.9033ZM19.6012 7.72363C20.4033 7.72363 20.8044 8.12467 20.8044 8.92676C20.8044 9.72884 20.4033 10.1299 19.6012 10.1299C18.7992 10.1299 18.3981 9.72884 18.3981 8.92676C18.3981 8.12467 18.7992 7.72363 19.6012 7.72363Z" fill="#EC3939"/>
</svg>
